<?xml version="1.0" encoding="UTF-8"?>
<!DOCTYPE svg PUBLIC "-//W3C//DTD SVG 1.1//EN" "http://www.w3.org/Graphics/SVG/1.1/DTD/svg11.dtd">
<!-- Creator: CorelDRAW 2020 (64-Bit) -->
<svg xmlns="http://www.w3.org/2000/svg" xml:space="preserve" width="149.314mm" height="32.7319mm" version="1.1" style="shape-rendering:geometricPrecision; text-rendering:geometricPrecision; image-rendering:optimizeQuality; fill-rule:evenodd; clip-rule:evenodd"
viewBox="0 0 15073.85 3304.42"
 xmlns:xlink="http://www.w3.org/1999/xlink"
 xmlns:xodm="http://www.corel.com/coreldraw/odm/2003">
 <defs>
  <style type="text/css">
   <![CDATA[
    .fil0 {fill:#181927}
    .fil1 {fill:#1CBDCF}
    .fil2 {fill:#1CBDCF}
    .fil3 {fill:#181927;fill-rule:nonzero}
   ]]>
  </style>
 </defs>
 <g id="Layer_x0020_1">
  <metadata id="CorelCorpID_0Corel-Layer"/>
  <g id="_2300596711184">
   <g>
    <rect class="fil0" x="1317.47" y="658.45" width="1986.95" height="659.03"/>
    <rect class="fil0" transform="matrix(5.74812E-15 -0.130504 0.216427 3.44663E-15 1986.95 1986.95)" width="15225.17" height="3045.04"/>
    <rect class="fil1" x="-0" y="1986.95" width="3304.42" height="659.03"/>
    <rect class="fil1" transform="matrix(5.74812E-15 -0.217037 0.216427 5.73197E-15 658.444 3304.43)" width="15225.17" height="3045.04"/>
    <rect class="fil1" x="-0" y="658.45" width="1317.47" height="659.03"/>
    <rect class="fil2" transform="matrix(5.74812E-15 -0.0865327 0.216427 2.28534E-15 1986.95 3304.43)" width="15225.17" height="3045.04"/>
   </g>
   <path class="fil3" d="M4550.19 190.61c-92.87,81.61 -181.52,177.99 -265.94,289.15 -84.42,111.16 -164.63,215.99 -240.61,314.48l0 1768.73c0,45.03 8.45,90.05 25.33,135.08 16.89,45.03 40.11,85.13 69.66,120.31 29.55,35.18 64.02,64.03 103.42,86.54 39.4,22.51 83.01,33.77 130.86,33.77l835.82 0c2.82,0 21.81,-17.59 56.99,-52.77 35.17,-35.17 75.27,-78.09 120.31,-128.75 45.03,-50.66 87.94,-103.42 128.75,-158.3 40.81,-54.88 68.24,-103.43 82.32,-145.64l-1046.88 0 0 -1013.11 658.52 0c2.82,0 21.81,-17.6 56.99,-52.77 35.17,-35.18 75.27,-78.1 120.31,-128.75 45.03,-50.66 87.94,-103.43 128.75,-158.31 40.81,-54.87 68.24,-103.42 82.32,-145.63l-1046.88 0 0 -764.05zm3946.89 1511.21l0 -261.71 1029.99 0c2.82,0 21.81,-17.6 56.99,-52.77 35.17,-35.18 75.28,-78.1 120.31,-128.75 45.03,-50.66 87.94,-103.43 128.75,-158.31 40.81,-54.87 68.24,-103.42 82.32,-145.63l-1595.65 0c-47.84,0 -91.45,11.26 -130.86,33.77 -39.4,22.51 -73.87,52.06 -103.42,88.65 -29.55,36.59 -52.77,77.39 -69.66,122.42 -16.88,45.03 -25.33,90.05 -25.33,135.08l0 489.67c0,45.03 8.45,89.35 25.33,132.98 16.89,43.61 40.11,82.31 69.66,116.09 29.55,33.77 64.02,61.21 103.42,82.31 39.4,21.11 83.01,31.66 130.86,31.66l1089.09 0 0 265.94 -1029.99 0c-5.62,0 -26.03,17.59 -61.21,52.77 -35.17,35.17 -74.57,78.09 -118.2,128.75 -43.61,50.66 -85.83,103.42 -126.64,158.3 -40.81,54.88 -68.24,103.43 -82.32,145.64l1595.65 0c45.03,0 87.94,-11.26 128.75,-33.77 40.81,-22.51 75.99,-52.06 105.54,-88.65 29.55,-36.59 52.76,-77.39 69.65,-122.42 16.89,-45.03 25.33,-90.05 25.33,-135.09l0 -489.67c0,-45.03 -9.15,-89.34 -27.44,-132.97 -18.29,-43.62 -42.21,-83.01 -71.76,-118.2 -29.55,-35.17 -64.73,-63.32 -105.54,-84.43 -40.81,-21.1 -83.72,-31.66 -128.75,-31.66l-1084.87 0zm2726.95 -257.49c81.61,-67.54 151.97,-135.09 211.06,-202.63 59.1,-67.54 112.56,-135.08 160.41,-202.63l0 1418.36 -903.36 0 0 -1013.11 531.89 0zm878.03 -1249.5c-106.94,92.87 -206.15,199.1 -297.6,318.7 -91.46,119.6 -161.11,244.14 -208.95,373.58 -5.63,11.26 -13.37,24.63 -23.22,40.11 -9.85,15.48 -16.18,23.22 -19,23.22l-1110.19 0c-30.95,0 -61.21,13.37 -90.76,40.1 -29.55,26.73 -56.99,58.39 -82.32,94.98 -25.33,36.59 -45.73,74.57 -61.21,113.98 -15.48,39.39 -23.22,70.35 -23.22,92.87l0 1350.81c0,28.15 8.45,59.1 25.33,92.87 16.89,33.77 38.7,65.43 65.43,94.98 26.74,29.55 55.59,54.88 86.54,75.99 30.96,21.11 61.92,31.66 92.87,31.66l1384.59 0c25.33,0 53.47,-11.96 84.43,-35.88 30.95,-23.93 59.1,-51.37 84.42,-82.32 25.33,-30.95 47.15,-63.32 65.44,-97.09 18.29,-33.77 27.44,-60.5 27.44,-80.21l0 -2448.34zm776.71 599.42l-506.56 0c75.99,-98.49 156.2,-203.32 240.61,-314.48 84.43,-111.16 173.08,-207.54 265.94,-289.15l0 603.64zm0 160.42l0 1435.23c-8.44,22.51 -32.37,60.5 -71.76,113.98 -39.4,53.47 -85.13,109.75 -137.2,168.85 -52.06,59.1 -105.53,114.68 -160.41,166.75 -54.88,52.06 -100.61,86.54 -137.2,103.42l0 -1988.22 506.56 0zm776.72 747.16l0 -261.71 1029.99 0c2.82,0 21.81,-17.6 56.99,-52.77 35.17,-35.18 75.28,-78.1 120.3,-128.75 45.03,-50.66 87.94,-103.43 128.75,-158.31 40.81,-54.87 68.24,-103.42 82.32,-145.63l-1595.64 0c-47.84,0 -91.45,11.26 -130.86,33.77 -39.4,22.51 -73.87,52.06 -103.42,88.65 -29.55,36.59 -52.77,77.39 -69.66,122.42 -16.88,45.03 -25.33,90.05 -25.33,135.08l0 489.67c0,45.03 8.45,89.35 25.33,132.98 16.89,43.61 40.11,82.31 69.66,116.09 29.55,33.77 64.02,61.21 103.42,82.31 39.4,21.11 83.01,31.66 130.86,31.66l1089.09 0 0 265.94 -1029.99 0c-5.62,0 -26.03,17.59 -61.21,52.77 -35.17,35.17 -74.57,78.09 -118.2,128.75 -43.61,50.66 -85.83,103.42 -126.64,158.3 -40.81,54.88 -68.24,103.43 -82.32,145.64l1595.65 0c45.03,0 87.94,-11.26 128.74,-33.77 40.81,-22.51 75.99,-52.06 105.54,-88.65 29.55,-36.59 52.76,-77.39 69.65,-122.42 16.89,-45.03 25.33,-90.05 25.33,-135.09l0 -489.67c0,-45.03 -9.15,-89.34 -27.44,-132.97 -18.29,-43.62 -42.21,-83.01 -71.76,-118.2 -29.55,-35.17 -64.73,-63.32 -105.54,-84.43 -40.8,-21.1 -83.71,-31.66 -128.74,-31.66l-1084.87 0zm-7851.59 894.92c0,22.51 7.74,53.47 23.22,92.87 15.48,39.39 35.88,77.39 61.21,113.98 25.33,36.58 52.77,68.23 82.31,94.98 29.55,26.73 59.81,40.1 90.76,40.1l1401.47 0c28.15,0 57.7,-13.37 88.65,-40.1 30.95,-26.74 59.1,-58.4 84.43,-94.98 25.33,-36.59 45.73,-74.58 61.21,-113.98 15.48,-39.4 23.22,-70.35 23.22,-92.87l0 -1350.82c0,-28.14 -8.45,-59.1 -25.33,-92.87 -16.89,-33.77 -38.7,-65.43 -65.43,-94.98 -26.74,-29.55 -56.29,-54.88 -88.65,-75.98 -32.37,-21.11 -62.62,-31.66 -90.76,-31.66l-1384.59 0c-25.33,0 -53.47,11.95 -84.43,35.88 -30.95,23.92 -59.09,51.36 -84.41,82.31 -25.33,30.96 -47.15,63.33 -65.44,97.1 -18.29,33.77 -27.44,60.5 -27.44,80.2l0 1350.82zm506.55 -151.97l0 -1013.12 903.36 0 0 1013.12 -903.36 0z"/>
  </g>
 </g>
</svg>
