<svg xmlns="http://www.w3.org/2000/svg" xmlns:xlink="http://www.w3.org/1999/xlink" viewBox="0 0 173.47 173.47"><defs><style>.cls-1{isolation:isolate;}.cls-2{fill:url(#linear-gradient);}.cls-3,.cls-7,.cls-8{mix-blend-mode:color-dodge;}.cls-3{fill:url(#radial-gradient);}.cls-4{fill:url(#New_Gradient_Swatch_1);}.cls-5{mix-blend-mode:color-burn;fill:url(#radial-gradient-2);}.cls-6{fill:url(#linear-gradient-2);}.cls-7{fill:url(#radial-gradient-3);}.cls-8{fill:url(#radial-gradient-4);}.cls-9{mix-blend-mode:overlay;}.cls-10{fill:#ccc;}.cls-11{fill:url(#New_Gradient_Swatch_1-2);}.cls-12{fill:url(#New_Gradient_Swatch_1-3);}</style><linearGradient id="linear-gradient" x1="86.73" y1="4.86" x2="86.73" y2="191.41" gradientUnits="userSpaceOnUse"><stop offset="0" stop-color="#f5f5f5"/><stop offset="0.41" stop-color="#ddd"/><stop offset="1" stop-color="#b3b3b3"/></linearGradient><radialGradient id="radial-gradient" cx="86.73" cy="86.73" r="86.73" gradientUnits="userSpaceOnUse"><stop offset="0.84"/><stop offset="0.89" stop-color="#050505"/><stop offset="0.96" stop-color="#131313"/><stop offset="1" stop-color="#1f1f1f"/></radialGradient><linearGradient id="New_Gradient_Swatch_1" x1="86.73" y1="14.32" x2="86.73" y2="151.06" gradientUnits="userSpaceOnUse"><stop offset="0" stop-color="#4dcfed"/><stop offset="0.53" stop-color="#33b2cd"/><stop offset="1" stop-color="#1f9db5"/></linearGradient><radialGradient id="radial-gradient-2" cx="86.73" cy="86.73" r="71.74" gradientUnits="userSpaceOnUse"><stop offset="0.85" stop-color="#fff"/><stop offset="0.87" stop-color="#fbfbfb"/><stop offset="0.9" stop-color="#f0f0f0"/><stop offset="0.93" stop-color="#dcdcdc"/><stop offset="0.95" stop-color="#c1c1c1"/><stop offset="0.98" stop-color="#9e9e9e"/><stop offset="1" stop-color="#7a7a7a"/></radialGradient><linearGradient id="linear-gradient-2" x1="86.73" y1="31.07" x2="86.73" y2="157.91" xlink:href="#linear-gradient"/><radialGradient id="radial-gradient-3" cx="86.73" cy="86.73" r="58.97" xlink:href="#radial-gradient"/><radialGradient id="radial-gradient-4" cx="96.87" cy="126.05" r="117.62" gradientUnits="userSpaceOnUse"><stop offset="0" stop-color="#1f1f1f"/><stop offset="0.25" stop-color="#131313"/><stop offset="0.65" stop-color="#050505"/><stop offset="1"/></radialGradient><linearGradient id="New_Gradient_Swatch_1-2" x1="112.69" y1="32.6" x2="59.58" y2="103.06" xlink:href="#New_Gradient_Swatch_1"/><linearGradient id="New_Gradient_Swatch_1-3" x1="136.58" y1="50.61" x2="83.47" y2="121.07" xlink:href="#New_Gradient_Swatch_1"/></defs><title>Asset 4</title><g class="cls-1"><g id="Layer_2" data-name="Layer 2"><g id="Layer_1-2" data-name="Layer 1"><circle class="cls-2" cx="86.73" cy="86.73" r="86.73"/><circle class="cls-3" cx="86.73" cy="86.73" r="86.73"/><circle class="cls-4" cx="86.73" cy="86.73" r="71.74"/><circle class="cls-5" cx="86.73" cy="86.73" r="71.74"/><circle class="cls-6" cx="86.73" cy="86.73" r="58.97"/><circle class="cls-7" cx="86.73" cy="86.73" r="58.97"/><path class="cls-8" d="M48.56,102.87c17.69-17.69,44-28.57,69-28.57a93.17,93.17,0,0,1,27.58,4.18A59,59,0,1,0,36.57,117.74,94.48,94.48,0,0,1,48.56,102.87Z"/><g class="cls-9"><path class="cls-10" d="M83.56,49.54a40.72,40.72,0,0,1,11.94,1.65,27.94,27.94,0,0,1,9.25,4.7,21.22,21.22,0,0,1,6,7.38,21.62,21.62,0,0,1,2.12,9.64,15.8,15.8,0,0,1-1.45,6.93,23.19,23.19,0,0,1-3.63,5.45,33.09,33.09,0,0,1-4.7,4.33q-2.52,1.9-4.7,3.49a31.11,31.11,0,0,0-3.63,3,4.23,4.23,0,0,0-1.45,3V104H73.72V95.83a7.57,7.57,0,0,1,1.09-3.91,19.25,19.25,0,0,1,2.77-3.58q1.68-1.73,3.58-3.41a49,49,0,0,0,3.58-3.49,19.71,19.71,0,0,0,2.77-3.77,8.69,8.69,0,0,0,1.09-4.31,9.17,9.17,0,0,0-.5-3,7.38,7.38,0,0,0-1.48-2.54A7.53,7.53,0,0,0,84.23,66,7.28,7.28,0,0,0,81,65.36a7.56,7.56,0,0,0-3.8.84A6.2,6.2,0,0,0,75,68.38a8.5,8.5,0,0,0-1.09,3.08A22,22,0,0,0,73.61,75v1.54a10.79,10.79,0,0,0,.11,1.54H52.64q-.11-1.12-.22-2.15a19.9,19.9,0,0,1-.11-2.15,21.32,21.32,0,0,1,2.35-10.06,22.8,22.8,0,0,1,6.51-7.63,30.26,30.26,0,0,1,9.9-4.84A44.33,44.33,0,0,1,83.56,49.54Z"/><rect class="cls-10" x="73.78" y="111.21" width="19.78" height="18.47"/></g><path class="cls-11" d="M84.91,47.67a41,41,0,0,1,12,1.66,28.11,28.11,0,0,1,9.31,4.73,21.35,21.35,0,0,1,6,7.43,21.75,21.75,0,0,1,2.14,9.7,15.9,15.9,0,0,1-1.46,7,23.34,23.34,0,0,1-3.66,5.49A33.29,33.29,0,0,1,104.55,88q-2.53,1.91-4.73,3.52a31.29,31.29,0,0,0-3.66,3.07,4.26,4.26,0,0,0-1.46,3v4.9H75V94.25a7.62,7.62,0,0,1,1.1-3.94,19.37,19.37,0,0,1,2.78-3.6q1.69-1.74,3.6-3.43a49.32,49.32,0,0,0,3.6-3.52A19.83,19.83,0,0,0,88.88,76,8.75,8.75,0,0,0,90,71.63a9.23,9.23,0,0,0-.51-3A7.43,7.43,0,0,0,88,66a7.58,7.58,0,0,0-2.39-1.77,7.32,7.32,0,0,0-3.21-.68,7.6,7.6,0,0,0-3.83.84,6.24,6.24,0,0,0-2.28,2.19,8.55,8.55,0,0,0-1.1,3.09,22.16,22.16,0,0,0-.28,3.54v1.55A10.86,10.86,0,0,0,75,76.36H53.8q-.11-1.12-.23-2.17A20,20,0,0,1,53.46,72,21.45,21.45,0,0,1,55.83,61.9a22.94,22.94,0,0,1,6.55-7.68,30.45,30.45,0,0,1,10-4.87A44.61,44.61,0,0,1,84.91,47.67Z"/><rect class="cls-12" x="75.07" y="109.72" width="19.91" height="18.58"/></g></g></g></svg>